<?xml version="1.0" encoding="UTF-8" standalone="no"?>
<svg
   width="40.639999mm"
   height="128.5mm"
   viewBox="0 0 115.2 364.25886"
   version="1.1"
   id="svg71"
   sodipodi:docname="MyModule2.svg"
   inkscape:version="1.4 (e7c3feb1, 2024-10-09)"
   xmlns:inkscape="http://www.inkscape.org/namespaces/inkscape"
   xmlns:sodipodi="http://sodipodi.sourceforge.net/DTD/sodipodi-0.dtd"
   xmlns="http://www.w3.org/2000/svg"
   xmlns:svg="http://www.w3.org/2000/svg">
  <defs
     id="defs71" />
  <sodipodi:namedview
     id="namedview71"
     pagecolor="#ffffff"
     bordercolor="#000000"
     borderopacity="0.25"
     inkscape:showpageshadow="2"
     inkscape:pageopacity="0.0"
     inkscape:pagecheckerboard="0"
     inkscape:deskcolor="#d1d1d1"
     inkscape:document-units="mm"
     showgrid="false"
     inkscape:zoom="2.345562"
     inkscape:cx="-11.297932"
     inkscape:cy="250.68619"
     inkscape:window-width="2520"
     inkscape:window-height="1387"
     inkscape:window-x="59"
     inkscape:window-y="28"
     inkscape:window-maximized="0"
     inkscape:current-layer="svg71" />
  <g
     id="faceplate">
    <g
       id="g1"
       style="fill:#1e1e1e;fill-opacity:1">
      <rect
         x="0.12"
         y="0.13"
         width="114.95"
         height="364"
         style="fill:#1e1e1e;stroke-width:0px;fill-opacity:1"
         id="rect1" />
      <path
         d="M 114.95,0.25 V 364 H 0.25 V 0.25 h 114.7 M 115.2,0 H 0 v 364.25 h 115.2 z"
         style="fill:#1e1e1e;stroke-width:0px;fill-opacity:1"
         id="path1" />
    </g>
    <path
       d="m 45.551949,323.42215 h -2.03304 v -3.90558 l -1.833626,2.26164 H 41.52478 l -1.83849,-2.26164 v 3.90558 h -1.974675 v -6.74113 h 1.843354 l 2.071949,2.52914 2.081677,-2.52914 h 1.843354 z m 6.721676,-4.95128 -3.365702,7.20319 h -1.770398 l 1.361845,-2.89879 -1.960084,-4.3044 h 1.882264 l 1.006792,2.46105 1.142977,-2.46105 z m 8.628257,4.95128 h -2.033039 v -3.90558 l -1.833626,2.26164 h -0.160504 l -1.83849,-2.26164 v 3.90558 h -1.974674 v -6.74113 h 1.843354 l 2.071949,2.52914 2.081677,-2.52914 h 1.843353 z m 6.88218,-2.4805 q 0,0.73928 -0.321006,1.31807 -0.321006,0.57878 -0.963018,0.91438 -0.637149,0.3356 -1.556394,0.3356 -0.919245,0 -1.561258,-0.3356 -0.637148,-0.3356 -0.958155,-0.91438 -0.316142,-0.57879 -0.316142,-1.31807 0,-0.55933 0.175094,-1.01652 0.179958,-0.45719 0.539874,-0.80738 0.36478,-0.35505 0.894927,-0.54474 0.530146,-0.18969 1.22566,-0.18969 0.700377,0 1.235387,0.19455 0.539874,0.18969 0.890063,0.53501 0.355052,0.34533 0.53501,0.80738 0.179958,0.46206 0.179958,1.02139 z m -1.843353,0 q 0,-0.58851 -0.257778,-0.91925 -0.252914,-0.3356 -0.739287,-0.3356 -0.48151,0 -0.739287,0.3356 -0.252914,0.33074 -0.252914,0.91925 0,0.58364 0.257777,0.92411 0.257778,0.34046 0.734424,0.34046 0.486373,0 0.739287,-0.3356 0.257778,-0.34046 0.257778,-0.92897 z m 7.991109,2.4805 h -1.755807 v -0.44746 q -0.277233,0.23346 -0.588512,0.38423 -0.306415,0.15078 -0.851152,0.15078 -0.539875,0 -1.060294,-0.26751 -0.520419,-0.2675 -0.856016,-0.8317 -0.335598,-0.56905 -0.335598,-1.42993 0,-0.67606 0.252914,-1.26457 0.252914,-0.59338 0.792788,-0.96302 0.539874,-0.36965 1.322935,-0.36965 0.486373,0 0.787924,0.10701 0.301552,0.107 0.535011,0.27237 v -2.08168 h 1.755807 z m -1.755807,-1.57585 v -1.89199 q -0.306415,-0.17023 -0.48151,-0.24319 -0.17023,-0.0729 -0.403689,-0.0729 -0.413417,0 -0.69065,0.35019 -0.272369,0.35018 -0.272369,0.95329 0,0.6566 0.28696,0.95815 0.291824,0.29669 0.676059,0.29669 0.316142,0 0.510692,-0.0973 0.194549,-0.10213 0.374507,-0.25291 z m 8.08352,1.57585 h -1.755807 v -0.70524 q -0.369644,0.39882 -0.778197,0.59824 -0.40369,0.19455 -0.972746,0.19455 -1.123522,0 -1.454256,-0.65174 -0.330733,-0.65661 -0.330733,-1.47858 v -2.90851 h 1.755806 v 2.67505 q 0,0.40369 0.131321,0.71011 0.136185,0.30155 0.583648,0.30155 0.384235,0 0.607966,-0.21887 0.223732,-0.21887 0.457191,-0.55933 v -2.90851 h 1.755807 z m 2.962011,0 h -1.755807 v -6.74113 h 1.755807 z m 6.283941,-2.05249 h -3.487294 q 0.102138,0.45232 0.500964,0.73928 0.398826,0.28696 0.904654,0.28696 0.885199,0 1.955219,-0.4961 v 1.08461 q -0.384234,0.19942 -0.933836,0.36478 -0.544738,0.16051 -1.391027,0.16051 -0.914381,0 -1.556394,-0.34046 -0.642012,-0.34047 -0.963018,-0.92411 -0.316143,-0.58365 -0.316143,-1.32294 0,-0.72956 0.316143,-1.30348 0.321006,-0.57878 0.963018,-0.90465 0.642013,-0.33074 1.556394,-0.33074 0.603103,0 1.162432,0.26265 0.564193,0.25777 0.924109,0.85115 0.364779,0.58851 0.364779,1.52235 z m -1.643941,-0.86575 q 0,-0.47664 -0.238322,-0.75874 -0.233459,-0.28696 -0.676059,-0.28696 -0.437736,0 -0.710105,0.29182 -0.267505,0.28696 -0.267505,0.75388 z m 7.475553,2.91824 h -5.121508 v -0.13132 q 0.296687,-0.28696 0.65174,-0.68579 0.355052,-0.39882 0.914381,-1.05543 0.257778,-0.29668 0.48151,-0.58364 0.228595,-0.28696 0.389098,-0.55447 0.160503,-0.27237 0.272369,-0.59824 0.111866,-0.32587 0.111866,-0.66633 0,-0.46692 -0.272369,-0.75388 -0.267505,-0.29182 -0.685786,-0.29182 -0.826834,0 -1.643941,0.85601 v -1.59043 q 0.28696,-0.18483 0.471782,-0.29669 0.184821,-0.11187 0.423144,-0.21887 0.243187,-0.107 0.57392,-0.18482 0.330734,-0.0778 0.714969,-0.0778 0.617694,0 1.123522,0.25291 0.505828,0.24805 0.792788,0.7247 0.291824,0.47178 0.291824,1.10406 0,0.44747 -0.131321,0.83657 -0.131321,0.38909 -0.272369,0.62742 -0.141048,0.23832 -0.374507,0.58851 -0.418281,0.62256 -0.894927,1.18675 h 2.183815 z"
       id="text46"
       style="font-weight:700;font-size:9.96092px;font-family:GillSans-Bold, 'Gill Sans';fill:#fffffd;stroke-width:0.905538"
       transform="scale(0.9055385,1.1043153)"
       aria-label="MyModule2" />
    <path
       d="m 83.874206,178.54595 q 0,0.78051 -0.285822,1.25322 -0.282158,0.4727 -0.666919,0.76586 -0.545994,0.42873 -1.528051,0.42873 h -2.740963 v -5.07884 h 2.110688 q 0.476371,0 0.813495,0.0513 0.340788,0.0476 0.611953,0.13924 0.271165,0.088 0.461713,0.20154 0.190548,0.10994 0.340788,0.23819 0.260172,0.21253 0.454384,0.50202 0.197877,0.28949 0.311473,0.67058 0.117261,0.3811 0.117261,0.82816 z m -1.557366,-0.066 q 0,-0.61928 -0.238185,-0.96374 -0.234521,-0.34811 -0.56798,-0.46537 -0.329795,-0.11726 -0.674248,-0.11726 h -0.652261 v 3.00846 h 0.652261 q 0.60096,0 1.040687,-0.28582 0.439726,-0.28583 0.439726,-1.17627 z m 5.812016,0.9674 h -2.627368 q 0.07695,0.34078 0.377432,0.55698 0.30048,0.2162 0.681577,0.2162 0.666919,0 1.473084,-0.37376 v 0.81715 q -0.289486,0.15024 -0.703562,0.27483 -0.410412,0.12093 -1.048016,0.12093 -0.688905,0 -1.172605,-0.25651 -0.483699,-0.25651 -0.725549,-0.69623 -0.238185,-0.43973 -0.238185,-0.99672 0,-0.54966 0.238185,-0.98205 0.24185,-0.43607 0.725549,-0.68158 0.4837,-0.24918 1.172605,-0.24918 0.454384,0 0.875789,0.19788 0.425069,0.19421 0.696234,0.64127 0.27483,0.44339 0.27483,1.14695 z m -1.238564,-0.65226 q 0,-0.35911 -0.179555,-0.57165 -0.175891,-0.2162 -0.50935,-0.2162 -0.329796,0 -0.535001,0.21986 -0.201542,0.2162 -0.201542,0.56799 z m 4.782321,2.0264 q -0.164897,0.0623 -0.348117,0.11726 -0.183219,0.0513 -0.414076,0.0843 -0.227192,0.0367 -0.498357,0.0367 -0.611953,0 -1.037022,-0.20521 -0.421405,-0.20887 -0.652262,-0.52034 -0.227192,-0.31514 -0.315137,-0.64127 -0.08794,-0.32613 -0.08794,-0.57531 0,-0.24918 0.08794,-0.57531 0.09161,-0.32613 0.315137,-0.63027 0.223528,-0.30415 0.644933,-0.50935 0.425069,-0.20521 1.044351,-0.20521 0.414076,0 0.674248,0.0586 0.260171,0.0586 0.527672,0.15757 v 1.03702 q -0.644933,-0.2052 -1.007707,-0.2052 -0.351782,0 -0.626611,0.21253 -0.271165,0.21254 -0.271165,0.65959 0,0.29682 0.135583,0.50202 0.135582,0.20154 0.344452,0.29682 0.208871,0.0953 0.417741,0.0953 0.197877,0 0.45072,-0.0586 0.252843,-0.0586 0.615617,-0.16856 z m 4.210677,-0.0146 q -0.289487,0.11359 -0.535001,0.18321 -0.245514,0.0696 -0.589966,0.0696 -0.326131,0 -0.454385,-0.1136 -0.128253,-0.11726 -0.183219,-0.28216 -0.212535,0.17223 -0.472706,0.28583 -0.260172,0.10993 -0.681577,0.10993 -0.406747,0 -0.65959,-0.13925 -0.249179,-0.14291 -0.351781,-0.35544 -0.09894,-0.2162 -0.09894,-0.4434 0,-0.34445 0.172226,-0.56798 0.175891,-0.22719 0.469042,-0.3701 0.293151,-0.14291 0.776851,-0.29681 0.274829,-0.088 0.414076,-0.13192 0.142911,-0.0476 0.212534,-0.0733 0.06962,-0.0257 0.146576,-0.066 0,-0.27116 -0.109932,-0.42507 -0.109931,-0.1539 -0.47637,-0.1539 -0.432398,0 -0.802502,0.19054 -0.370103,0.19055 -0.677912,0.49103 v -1.01137 q 0.245514,-0.17589 0.531337,-0.28582 0.285822,-0.1136 0.597295,-0.16856 0.311473,-0.055 0.630275,-0.055 0.80983,0 1.216578,0.31514 0.410411,0.31147 0.410411,0.86113 v 1.44011 q 0,0.2052 0.03664,0.3078 0.04031,0.0989 0.142911,0.0989 0.12459,0 0.337124,-0.10626 z m -1.835859,-0.71456 v -0.88312 q -0.469042,0.19055 -0.685241,0.34445 -0.216199,0.15024 -0.216199,0.41042 0,0.18688 0.106267,0.28582 0.109932,0.0989 0.252843,0.0989 0.135583,0 0.267501,-0.0733 0.135582,-0.077 0.274829,-0.18322 z m 5.947598,-2.82891 -2.535758,5.42696 h -1.333837 l 1.026029,-2.18397 -1.476749,-3.24299 h 1.418118 l 0.758529,1.85418 0.861132,-1.85418 z"
       id="text47"
       style="font-weight:700;font-size:7.50467px;font-family:GillSans-Bold, 'Gill Sans';letter-spacing:-0.04em;fill:#fffffd;stroke-width:0.938083"
       transform="scale(0.93808314,1.0660036)"
       aria-label="Decay" />
    <path
       d="m 88.817763,224.93358 h -1.531715 v -2.94251 l -1.381475,1.70394 h -0.120925 l -1.385139,-1.70394 v 2.94251 h -1.487742 v -5.07885 h 1.388803 l 1.56103,1.90549 1.568359,-1.90549 h 1.388804 z m 2.048687,-4.59148 q 0,0.23085 -0.164897,0.39209 -0.164898,0.16123 -0.39209,0.16123 -0.153904,0 -0.282158,-0.0733 -0.124589,-0.0733 -0.197877,-0.19787 -0.07329,-0.12826 -0.07329,-0.28216 0,-0.22719 0.161233,-0.39209 0.161233,-0.1649 0.39209,-0.1649 0.227192,0 0.39209,0.1649 0.164897,0.1649 0.164897,0.39209 z m 0.106267,4.59148 h -1.322844 v -3.73035 h 1.322844 z m 4.764,0 h -1.626989 l -0.721885,-1.05901 -0.71822,1.05901 h -1.44377 l 1.44377,-1.8322 -1.473085,-1.89815 h 1.623325 l 0.688905,1.01504 0.696234,-1.01504 h 1.443769 l -1.41079,1.7699 z"
       id="text48"
       style="font-weight:700;font-size:7.50467px;font-family:GillSans-Bold, 'Gill Sans';letter-spacing:-0.04em;fill:#fffffd;stroke-width:0.938083"
       transform="scale(0.93808314,1.0660036)"
       aria-label="Mix" />
    <path
       d="m 33.193655,219.85473 -2.198634,5.14481 h -0.886782 l -1.31918,-2.99381 -1.35216,2.99381 h -0.894111 l -2.154661,-5.14481 h 1.58668 l 1.055345,2.81426 1.209248,-2.81426 h 1.095653 l 1.187262,2.81426 1.102981,-2.81426 z m 3.840573,4.89196 q -0.289486,0.1136 -0.535001,0.18322 -0.245514,0.0696 -0.589966,0.0696 -0.326131,0 -0.454385,-0.1136 -0.128253,-0.11726 -0.183219,-0.28216 -0.212535,0.17223 -0.472706,0.28583 -0.260172,0.10993 -0.681577,0.10993 -0.406747,0 -0.65959,-0.13925 -0.249179,-0.14291 -0.351781,-0.35545 -0.09894,-0.21619 -0.09894,-0.44339 0,-0.34445 0.172226,-0.56798 0.175891,-0.22719 0.469042,-0.3701 0.293151,-0.14291 0.776851,-0.29682 0.274829,-0.0879 0.414076,-0.13191 0.142911,-0.0476 0.212534,-0.0733 0.06962,-0.0257 0.146576,-0.066 0,-0.27117 -0.109932,-0.42507 -0.109931,-0.1539 -0.47637,-0.1539 -0.432398,0 -0.802502,0.19054 -0.370103,0.19055 -0.677912,0.49103 v -1.01137 q 0.245514,-0.17589 0.531337,-0.28582 0.285822,-0.1136 0.597295,-0.16856 0.311473,-0.055 0.630275,-0.055 0.80983,0 1.216578,0.31514 0.410411,0.31147 0.410411,0.86113 v 1.44011 q 0,0.2052 0.03664,0.3078 0.04031,0.0989 0.142911,0.0989 0.12459,0 0.337124,-0.10627 z m -1.835859,-0.71455 v -0.88312 q -0.469042,0.19055 -0.685241,0.34445 -0.216199,0.15024 -0.216199,0.41041 0,0.18689 0.106268,0.28583 0.109931,0.0989 0.252842,0.0989 0.135583,0 0.267501,-0.0733 0.135582,-0.077 0.274829,-0.18322 z m 5.881639,-2.82891 -1.696612,3.73035 H 38.408668 L 36.7487,221.20323 h 1.418118 l 0.773187,1.95312 0.857467,-1.95312 z m 3.862561,2.18398 h -2.627367 q 0.07695,0.34078 0.377432,0.55698 0.30048,0.2162 0.681576,0.2162 0.666919,0 1.473085,-0.37377 v 0.81716 q -0.289487,0.15024 -0.703563,0.27483 -0.410412,0.12093 -1.048015,0.12093 -0.688906,0 -1.172605,-0.25651 -0.4837,-0.25651 -0.725549,-0.69623 -0.238186,-0.43973 -0.238186,-0.99672 0,-0.54966 0.238186,-0.98205 0.241849,-0.43607 0.725549,-0.68158 0.483699,-0.24918 1.172605,-0.24918 0.454384,0 0.875789,0.19788 0.425069,0.19421 0.696234,0.64127 0.274829,0.44339 0.274829,1.14695 z m -1.238564,-0.65227 q 0,-0.35911 -0.179555,-0.57164 -0.17589,-0.2162 -0.50935,-0.2162 -0.329795,0 -0.535001,0.21986 -0.201541,0.2162 -0.201541,0.56798 z"
       id="text49"
       style="font-weight:700;font-size:7.50467px;font-family:GillSans-Bold, 'Gill Sans';letter-spacing:-0.04em;fill:#fffffd;stroke-width:0.938083"
       transform="scale(0.93808314,1.0660036)"
       aria-label="Wave" />
    <path
       d="m 28.477292,180.99376 h -1.568358 l -0.414076,-1.02969 h -2.205963 l -0.421405,1.02969 h -1.568359 l 2.246271,-5.07884 h 1.692948 z m -2.334216,-1.91281 -0.743871,-1.85418 -0.7512,1.85418 z m 5.434583,1.69661 q -0.205206,0.0989 -0.56798,0.19055 -0.35911,0.0916 -0.688906,0.0916 -1.425447,0 -1.425447,-1.39247 v -1.48774 H 28.29803 v -0.23086 l 1.769901,-1.80288 h 0.15024 v 1.11764 h 1.26055 v 0.9161 h -1.26055 v 1.19459 q 0,0.20887 0.02565,0.33712 0.02565,0.12826 0.142912,0.2162 0.120924,0.0843 0.362774,0.0843 0.315138,0 0.828152,-0.26383 z m 3.221291,0 q -0.205206,0.0989 -0.56798,0.19055 -0.35911,0.0916 -0.688905,0.0916 -1.425448,0 -1.425448,-1.39247 v -1.48774 h -0.597296 v -0.23086 l 1.769901,-1.80288 h 0.15024 v 1.11764 h 1.26055 v 0.9161 h -1.26055 v 1.19459 q 0,0.20887 0.02565,0.33712 0.02565,0.12826 0.142912,0.2162 0.120924,0.0843 0.362774,0.0843 0.315138,0 0.828152,-0.26383 z m 4.148382,0.0293 q -0.289486,0.11359 -0.535001,0.18321 -0.245514,0.0696 -0.589966,0.0696 -0.326131,0 -0.454385,-0.1136 -0.128253,-0.11726 -0.183219,-0.28216 -0.212535,0.17223 -0.472706,0.28583 -0.260172,0.10993 -0.681577,0.10993 -0.406747,0 -0.65959,-0.13925 -0.249178,-0.14291 -0.351781,-0.35544 -0.09894,-0.2162 -0.09894,-0.4434 0,-0.34445 0.172226,-0.56798 0.175891,-0.22719 0.469042,-0.3701 0.293151,-0.14291 0.776851,-0.29681 0.274829,-0.088 0.414076,-0.13192 0.142911,-0.0476 0.212535,-0.0733 0.06962,-0.0257 0.146575,-0.066 0,-0.27116 -0.109932,-0.42507 -0.109931,-0.1539 -0.47637,-0.1539 -0.432398,0 -0.802502,0.19054 -0.370103,0.19055 -0.677912,0.49103 v -1.01137 q 0.245514,-0.17589 0.531337,-0.28582 0.285822,-0.1136 0.597295,-0.16856 0.311473,-0.055 0.630275,-0.055 0.809831,0 1.216578,0.31514 0.410411,0.31147 0.410411,0.86113 v 1.44011 q 0,0.2052 0.03664,0.3078 0.04031,0.0989 0.142912,0.0989 0.124589,0 0.337123,-0.10626 z m -1.835859,-0.71456 v -0.88312 q -0.469042,0.19055 -0.685241,0.34445 -0.216199,0.15024 -0.216199,0.41042 0,0.18688 0.106268,0.28582 0.109931,0.0989 0.252842,0.0989 0.135583,0 0.267501,-0.0733 0.135582,-0.077 0.274829,-0.18322 z m 5.145096,0.72921 q -0.164898,0.0623 -0.348117,0.11726 -0.18322,0.0513 -0.414076,0.0843 -0.227192,0.0367 -0.498357,0.0367 -0.611953,0 -1.037022,-0.20521 -0.421405,-0.20887 -0.652262,-0.52034 -0.227192,-0.31514 -0.315137,-0.64127 -0.08795,-0.32613 -0.08795,-0.57531 0,-0.24918 0.08795,-0.57531 0.09161,-0.32613 0.315137,-0.63027 0.223528,-0.30415 0.644933,-0.50935 0.425069,-0.20521 1.044351,-0.20521 0.414076,0 0.674248,0.0586 0.260171,0.0586 0.527672,0.15757 v 1.03702 q -0.644933,-0.2052 -1.007707,-0.2052 -0.351782,0 -0.626611,0.21253 -0.271165,0.21254 -0.271165,0.65959 0,0.29682 0.135582,0.50202 0.135583,0.20154 0.344453,0.29682 0.20887,0.0953 0.417741,0.0953 0.197877,0 0.450719,-0.0586 0.252843,-0.0586 0.615618,-0.16856 z m 4.774994,0.17223 h -1.674626 l -1.432776,-1.7699 v 1.7699 h -1.333838 v -5.07884 h 1.333838 v 2.97914 l 1.308187,-1.63065 h 1.583016 l -1.458427,1.74059 z"
       id="text50"
       style="font-weight:700;font-size:7.50467px;font-family:GillSans-Bold, 'Gill Sans';letter-spacing:-0.04em;fill:#fffffd;stroke-width:0.938083"
       transform="scale(0.93808314,1.0660036)"
       aria-label="Attack" />
    <path
       d="m 31.365125,270.35293 q -0.164898,0.0623 -0.282158,0.1026 -0.117261,0.0403 -0.227192,0.0733 -0.106268,0.033 -0.311473,0.0843 -0.348117,0.0806 -0.696234,0.12092 -0.344453,0.044 -0.729214,0.044 -0.773186,0 -1.429112,-0.28216 -0.655926,-0.28216 -1.05168,-0.87579 -0.39209,-0.59363 -0.39209,-1.45843 0,-0.55699 0.201542,-1.09199 0.205206,-0.53866 0.622946,-0.86113 0.344453,-0.2675 0.696234,-0.40675 0.355446,-0.14291 0.69257,-0.19054 0.337124,-0.0476 0.743871,-0.0476 0.670583,0 1.106646,0.1026 0.436062,0.0989 0.956405,0.26384 v 1.20192 q -0.344452,-0.20154 -0.729213,-0.33713 -0.384761,-0.13558 -0.96007,-0.13558 -0.663255,0 -1.062673,0.25284 -0.395754,0.24918 -0.553323,0.5973 -0.153904,0.34812 -0.153904,0.67425 0,0.38476 0.179555,0.71089 0.179555,0.32247 0.542329,0.52034 0.362775,0.19421 0.875789,0.19421 0.293152,0 0.622947,-0.077 v -0.59729 h -0.688906 v -1.02237 h 2.026408 z m 4.558794,0.17222 q -0.289487,0.1136 -0.535001,0.18322 -0.245514,0.0696 -0.589966,0.0696 -0.326131,0 -0.454385,-0.1136 -0.128253,-0.11726 -0.183219,-0.28216 -0.212535,0.17223 -0.472707,0.28582 -0.260171,0.10994 -0.681576,0.10994 -0.406747,0 -0.65959,-0.13925 -0.249179,-0.14291 -0.351782,-0.35545 -0.09894,-0.2162 -0.09894,-0.44339 0,-0.34445 0.172226,-0.56798 0.175891,-0.22719 0.469042,-0.3701 0.293151,-0.14291 0.776851,-0.29682 0.274829,-0.0879 0.414076,-0.13192 0.142911,-0.0476 0.212534,-0.0733 0.06962,-0.0256 0.146576,-0.066 0,-0.27117 -0.109932,-0.42507 -0.109931,-0.15391 -0.47637,-0.15391 -0.432398,0 -0.802502,0.19055 -0.370103,0.19055 -0.677912,0.49103 v -1.01137 q 0.245514,-0.17589 0.531337,-0.28582 0.285822,-0.1136 0.597295,-0.16857 0.311473,-0.055 0.630275,-0.055 0.80983,0 1.216578,0.31514 0.410411,0.31147 0.410411,0.86113 v 1.4401 q 0,0.20521 0.03664,0.30781 0.04031,0.0989 0.142911,0.0989 0.12459,0 0.337124,-0.10627 z M 34.08806,269.8106 v -0.88312 q -0.469042,0.19055 -0.685241,0.34445 -0.216199,0.15024 -0.216199,0.41041 0,0.18689 0.106267,0.28583 0.109932,0.0989 0.252843,0.0989 0.135583,0 0.267501,-0.0733 0.135582,-0.077 0.274829,-0.18322 z m 4.892253,0.68524 q -0.205205,0.0989 -0.56798,0.19055 -0.35911,0.0916 -0.688905,0.0916 -1.425448,0 -1.425448,-1.39247 v -1.48775 h -0.597295 v -0.23085 l 1.7699,-1.80288 h 0.15024 v 1.11764 h 1.26055 v 0.91609 h -1.26055 v 1.1946 q 0,0.20887 0.02565,0.33712 0.02565,0.12825 0.142912,0.2162 0.120925,0.0843 0.362774,0.0843 0.315138,0 0.828152,-0.26384 z m 4.10441,-1.33018 h -2.627368 q 0.07695,0.34079 0.377433,0.55699 0.300479,0.2162 0.681576,0.2162 0.666919,0 1.473085,-0.37377 v 0.81716 q -0.289487,0.15024 -0.703563,0.27483 -0.410412,0.12093 -1.048016,0.12093 -0.688905,0 -1.172604,-0.25651 -0.4837,-0.25651 -0.725549,-0.69624 -0.238186,-0.43972 -0.238186,-0.99671 0,-0.54966 0.238186,-0.98206 0.241849,-0.43606 0.725549,-0.68157 0.483699,-0.24918 1.172604,-0.24918 0.454385,0 0.87579,0.19788 0.425069,0.19421 0.696234,0.64126 0.274829,0.44339 0.274829,1.14696 z m -1.238564,-0.65226 q 0,-0.35911 -0.179555,-0.57164 -0.175891,-0.2162 -0.50935,-0.2162 -0.329795,0 -0.535001,0.21986 -0.201542,0.2162 -0.201542,0.56798 z"
       id="text51"
       style="font-weight:700;font-size:7.50467px;font-family:GillSans-Bold, 'Gill Sans';letter-spacing:-0.04em;fill:#fffffd;stroke-width:0.938083"
       transform="scale(0.93808314,1.0660036)"
       aria-label="Gate" />
    <path
       d="m 24.72298,316.07773 h -3.858602 v -5.07885 h 1.531715 v 3.86227 h 2.326887 z m 4.199684,-1.54637 h -2.627367 q 0.07695,0.34078 0.377432,0.55698 0.30048,0.2162 0.681577,0.2162 0.666919,0 1.473084,-0.37377 v 0.81716 q -0.289486,0.15024 -0.703563,0.27483 -0.410411,0.12093 -1.048015,0.12093 -0.688905,0 -1.172605,-0.25651 -0.483699,-0.25651 -0.725549,-0.69623 -0.238185,-0.43973 -0.238185,-0.99672 0,-0.54966 0.238185,-0.98205 0.24185,-0.43607 0.725549,-0.68158 0.4837,-0.24918 1.172605,-0.24918 0.454384,0 0.875789,0.19788 0.425069,0.19421 0.696234,0.64127 0.274829,0.44339 0.274829,1.14695 z m -1.238563,-0.65227 q 0,-0.35911 -0.179555,-0.57164 -0.175891,-0.2162 -0.509351,-0.2162 -0.329795,0 -0.535,0.21986 -0.201542,0.2162 -0.201542,0.56798 z m 4.086087,-1.93479 q -0.30048,-0.0696 -0.487364,-0.0696 -0.212534,0 -0.333459,0.13925 -0.117261,0.13925 -0.117261,0.39575 v 0.13192 h 0.666919 v 0.89411 h -0.666919 v 2.64203 H 29.50926 v -2.64203 h -0.608289 v -0.89411 h 0.608289 v -0.066 q 0,-0.39209 0.15024,-0.7402 0.153904,-0.35178 0.50935,-0.57898 0.355446,-0.22719 0.938084,-0.22719 0.329795,0 0.663254,0.0696 z m 2.913483,3.91723 q -0.205206,0.0989 -0.56798,0.19055 -0.359111,0.0916 -0.688906,0.0916 -1.425447,0 -1.425447,-1.39247 v -1.48774 h -0.597296 v -0.23086 l 1.7699,-1.80288 h 0.15024 v 1.11764 h 1.260551 v 0.9161 h -1.260551 v 1.19459 q 0,0.20887 0.02565,0.33712 0.02565,0.12826 0.142911,0.2162 0.120925,0.0843 0.362775,0.0843 0.315137,0 0.828152,-0.26383 z m 5.929276,-2.32689 q 0,0.71089 -0.329795,1.30819 -0.326131,0.59729 -0.974728,0.94908 -0.648597,0.35178 -1.579352,0.35178 -0.941748,0 -1.59401,-0.36644 -0.652261,-0.36644 -0.971063,-0.96374 -0.315137,-0.59729 -0.315137,-1.27887 0,-0.68524 0.315137,-1.27887 0.315138,-0.5973 0.967399,-0.96007 0.655926,-0.36644 1.597674,-0.36644 0.703563,0 1.253221,0.20887 0.553323,0.20887 0.908769,0.56798 0.355446,0.35545 0.538665,0.83182 0.18322,0.4727 0.18322,0.99671 z m -1.56103,0 q 0,-0.28582 -0.08428,-0.52034 -0.08428,-0.23819 -0.256508,-0.41041 -0.168562,-0.17589 -0.414076,-0.27117 -0.245514,-0.0989 -0.56798,-0.0989 -0.615618,0 -0.967399,0.35911 -0.351781,0.35911 -0.351781,0.94175 0,0.58264 0.351781,0.94541 0.355446,0.35911 0.967399,0.35911 0.421405,0 0.71822,-0.16489 0.296816,-0.16856 0.45072,-0.46172 0.153905,-0.29681 0.153905,-0.67791 z m 5.929275,2.54309 h -1.322844 v -0.53134 q -0.278494,0.30048 -0.586303,0.45072 -0.304144,0.14658 -0.732878,0.14658 -0.846474,0 -1.095652,-0.49103 -0.249179,-0.49469 -0.249179,-1.11398 v -2.1913 h 1.322845 v 2.01541 q 0,0.30415 0.09894,0.535 0.102603,0.2272 0.439727,0.2272 0.289487,0 0.458049,-0.1649 0.168562,-0.1649 0.344453,-0.42141 v -2.1913 h 1.322844 z m 3.485127,-0.2162 q -0.205206,0.0989 -0.56798,0.19055 -0.35911,0.0916 -0.688906,0.0916 -1.425447,0 -1.425447,-1.39247 v -1.48774 H 45.18669 v -0.23086 l 1.769901,-1.80288 h 0.15024 v 1.11764 h 1.26055 v 0.9161 h -1.26055 v 1.19459 q 0,0.20887 0.02565,0.33712 0.02565,0.12826 0.142911,0.2162 0.120925,0.0843 0.362775,0.0843 0.315138,0 0.828152,-0.26383 z"
       id="text52"
       style="font-weight:700;font-size:7.50467px;font-family:GillSans-Bold, 'Gill Sans';letter-spacing:-0.04em;fill:#fffffd;stroke-width:0.938083"
       transform="scale(0.93808314,1.0660036)"
       aria-label="LeftOut" />
    <path
       d="m 88.279093,269.20084 q 0,0.71089 -0.329795,1.30819 -0.326131,0.59729 -0.974728,0.94907 -0.648597,0.35179 -1.579352,0.35179 -0.941748,0 -1.594009,-0.36644 -0.652262,-0.36644 -0.971064,-0.96374 -0.315137,-0.59729 -0.315137,-1.27887 0,-0.68524 0.315137,-1.27887 0.315138,-0.5973 0.967399,-0.96007 0.655926,-0.36644 1.597674,-0.36644 0.703563,0 1.253221,0.20887 0.553323,0.20887 0.908769,0.56798 0.355446,0.35545 0.538665,0.83182 0.18322,0.4727 0.18322,0.99671 z m -1.56103,0 q 0,-0.28582 -0.08428,-0.52034 -0.08428,-0.23819 -0.256507,-0.41041 -0.168562,-0.1759 -0.414076,-0.27117 -0.245515,-0.0989 -0.567981,-0.0989 -0.615617,0 -0.967399,0.35911 -0.351781,0.35911 -0.351781,0.94175 0,0.58264 0.351781,0.94541 0.355446,0.35911 0.967399,0.35911 0.421405,0 0.718221,-0.16489 0.296815,-0.16857 0.450719,-0.46172 0.153905,-0.29681 0.153905,-0.67791 z m 5.929276,2.54309 h -1.322845 v -0.53134 q -0.278494,0.30048 -0.586303,0.45072 -0.304144,0.14658 -0.732877,0.14658 -0.846474,0 -1.095653,-0.49103 -0.249178,-0.49469 -0.249178,-1.11398 v -2.1913 h 1.322844 v 2.01541 q 0,0.30415 0.09894,0.535 0.102603,0.2272 0.439726,0.2272 0.289487,0 0.458049,-0.1649 0.168562,-0.1649 0.344453,-0.42141 v -2.1913 h 1.322845 z m 3.485127,-0.2162 q -0.205205,0.0989 -0.56798,0.19055 -0.35911,0.0916 -0.688905,0.0916 -1.425448,0 -1.425448,-1.39247 v -1.48774 h -0.597295 v -0.23086 l 1.7699,-1.80288 h 0.15024 v 1.11764 h 1.26055 v 0.9161 h -1.26055 v 1.19459 q 0,0.20887 0.02565,0.33712 0.02565,0.12825 0.142912,0.2162 0.120925,0.0843 0.362774,0.0843 0.315138,0 0.828152,-0.26384 z"
       id="text53"
       style="font-weight:700;font-size:7.50467px;font-family:GillSans-Bold, 'Gill Sans';letter-spacing:-0.04em;fill:#fffffd;stroke-width:0.938083"
       transform="scale(0.93808314,1.0660036)"
       aria-label="Out" />
    <path
       d="m 78.131669,316.07773 h -1.645311 l -0.399418,-0.90144 q -0.219864,-0.49469 -0.395755,-0.72189 -0.17589,-0.23085 -0.344452,-0.29315 -0.164898,-0.066 -0.428734,-0.066 h -0.172226 v 1.98244 h -1.531715 v -5.07885 h 2.605381 q 0.630275,0 1.033358,0.25651 0.403083,0.25651 0.578974,0.62295 0.179555,0.36644 0.179555,0.69623 0,0.38476 -0.15024,0.65226 -0.146576,0.26384 -0.311473,0.38476 -0.164898,0.12093 -0.370104,0.23086 0.245514,0.14291 0.403083,0.34079 0.161233,0.19421 0.436062,0.79151 z m -2.081373,-3.47384 q 0,-0.35178 -0.230857,-0.49103 -0.230856,-0.13925 -0.7512,-0.13925 h -0.322466 v 1.22391 h 0.329795 q 0.560652,0 0.765857,-0.12093 0.208871,-0.12459 0.208871,-0.4727 z m 3.543758,-1.11764 q 0,0.23085 -0.164898,0.39209 -0.164897,0.16123 -0.39209,0.16123 -0.153904,0 -0.282158,-0.0733 -0.124589,-0.0733 -0.197877,-0.19787 -0.07329,-0.12826 -0.07329,-0.28216 0,-0.22719 0.161233,-0.39209 0.161233,-0.1649 0.392089,-0.1649 0.227193,0 0.39209,0.1649 0.164898,0.1649 0.164898,0.39209 z m 0.106267,4.59148 h -1.322845 v -3.73035 h 1.322845 z m 4.360917,-2.93518 h -0.652262 q 0.344453,0.30048 0.344453,0.73654 0,0.23086 -0.09894,0.4434 -0.09527,0.21253 -0.285823,0.37743 -0.186884,0.1649 -0.465377,0.27116 -0.27483,0.10261 -0.630275,0.12459 -0.458049,0.0183 -0.458049,0.24552 0,0.0879 0.05863,0.12825 0.05863,0.0403 0.18322,0.0623 0.128253,0.0183 0.428733,0.044 0.340788,0.0293 0.63394,0.1026 0.293151,0.0733 0.545994,0.30781 0.252843,0.23452 0.252843,0.67058 0,0.34812 -0.190549,0.61562 -0.186884,0.2675 -0.608288,0.41774 -0.421405,0.15024 -1.113975,0.15024 -0.996714,0 -1.465756,-0.2675 -0.465377,-0.2675 -0.465377,-0.71456 0,-0.12092 0.05863,-0.27849 0.0623,-0.15757 0.256507,-0.30414 0.197877,-0.14658 0.571645,-0.19788 -0.131918,-0.0476 -0.227192,-0.18322 -0.09527,-0.13925 -0.09527,-0.28949 0,-0.19421 0.131918,-0.38476 0.135582,-0.19055 0.436062,-0.24551 -0.41774,-0.10993 -0.721885,-0.41408 -0.304144,-0.30414 -0.304144,-0.78784 0,-0.36644 0.139247,-0.64127 0.142911,-0.27483 0.39209,-0.44706 0.249178,-0.17222 0.578973,-0.25284 0.329795,-0.0843 0.721885,-0.0843 h 2.048394 z m -1.458427,0.63028 q 0,-0.28216 -0.194213,-0.45072 -0.190548,-0.17223 -0.428734,-0.17223 -0.304144,0 -0.480035,0.20521 -0.172226,0.2052 -0.172226,0.43239 0,0.15757 0.07329,0.29316 0.07695,0.13558 0.212534,0.21986 0.139247,0.0806 0.329796,0.0806 0.285822,0 0.472706,-0.17956 0.186884,-0.17955 0.186884,-0.42873 z m 0.263836,3.00113 q 0,-0.24551 -0.263836,-0.3188 -0.260172,-0.0696 -0.538666,-0.0696 -0.458048,0 -0.663254,0.0953 -0.201542,0.0989 -0.201542,0.31147 0,0.41774 0.84281,0.41774 0.377432,0 0.60096,-0.10993 0.223528,-0.10626 0.223528,-0.32613 z m 5.350302,-0.69623 h -1.319181 v -1.9348 q 0,-0.022 0,-0.0403 0.0037,-0.022 0.0037,-0.0879 0,-0.2675 -0.113596,-0.49103 -0.113596,-0.22353 -0.432398,-0.22353 -0.249179,0 -0.439727,0.16856 -0.190548,0.1649 -0.362775,0.41774 v 2.19131 h -1.31918 v -5.07885 h 1.31918 v 1.8835 q 0.326131,-0.34812 0.644933,-0.47271 0.318802,-0.12825 0.677912,-0.12825 1.341167,0 1.341167,1.50606 z m 3.433826,-0.2162 q -0.205206,0.0989 -0.56798,0.19055 -0.359111,0.0916 -0.688906,0.0916 -1.425447,0 -1.425447,-1.39247 v -1.48774 h -0.597296 v -0.23086 l 1.7699,-1.80288 h 0.15024 v 1.11764 h 1.26055 v 0.9161 h -1.26055 v 1.19459 q 0,0.20887 0.02565,0.33712 0.02565,0.12826 0.142911,0.2162 0.120925,0.0843 0.362775,0.0843 0.315137,0 0.828152,-0.26383 z m 5.929276,-2.32689 q 0,0.71089 -0.329795,1.30819 -0.32613,0.59729 -0.974727,0.94908 -0.648597,0.35178 -1.579352,0.35178 -0.941748,0 -1.59401,-0.36644 -0.652261,-0.36644 -0.971063,-0.96374 -0.315138,-0.59729 -0.315138,-1.27887 0,-0.68524 0.315138,-1.27887 0.315137,-0.5973 0.967399,-0.96007 0.655926,-0.36644 1.597674,-0.36644 0.703563,0 1.253221,0.20887 0.553323,0.20887 0.908769,0.56798 0.355446,0.35545 0.538665,0.83182 0.183219,0.4727 0.183219,0.99671 z m -1.56103,0 q 0,-0.28582 -0.08428,-0.52034 -0.08428,-0.23819 -0.256508,-0.41041 -0.168562,-0.17589 -0.414076,-0.27117 -0.245514,-0.0989 -0.56798,-0.0989 -0.615618,0 -0.967399,0.35911 -0.351782,0.35911 -0.351782,0.94175 0,0.58264 0.351782,0.94541 0.355446,0.35911 0.967399,0.35911 0.421405,0 0.71822,-0.16489 0.296816,-0.16856 0.45072,-0.46172 0.153904,-0.29681 0.153904,-0.67791 z m 5.929279,2.54309 h -1.32285 v -0.53134 q -0.27849,0.30048 -0.5863,0.45072 -0.304145,0.14658 -0.732879,0.14658 -0.846474,0 -1.095652,-0.49103 -0.249179,-0.49469 -0.249179,-1.11398 v -2.1913 h 1.322845 v 2.01541 q 0,0.30415 0.09894,0.535 0.102603,0.2272 0.439727,0.2272 0.28949,0 0.45805,-0.1649 0.16856,-0.1649 0.34445,-0.42141 v -2.1913 h 1.32285 z m 3.48512,-0.2162 q -0.2052,0.0989 -0.56798,0.19055 -0.35911,0.0916 -0.6889,0.0916 -1.42545,0 -1.42545,-1.39247 v -1.48774 h -0.5973 v -0.23086 l 1.7699,-1.80288 h 0.15024 v 1.11764 h 1.26055 v 0.9161 h -1.26055 v 1.19459 q 0,0.20887 0.0257,0.33712 0.0256,0.12826 0.14291,0.2162 0.12092,0.0843 0.36277,0.0843 0.31514,0 0.82815,-0.26383 z"
       id="text54"
       style="font-weight:700;font-size:7.50467px;font-family:GillSans-Bold, 'Gill Sans';letter-spacing:-0.04em;fill:#fffffd;stroke-width:0.938083"
       transform="scale(0.93808314,1.0660036)"
       aria-label="RightOut" />
    <path
       d="m 31.947562,118.30654 -2.74829,6.431 h -1.108477 l -1.648974,-3.74226 -1.690199,3.74226 h -1.117638 l -2.693324,-6.431 h 1.98335 l 1.319179,3.51781 1.511559,-3.51781 h 1.369565 l 1.484076,3.51781 1.378726,-3.51781 z m 4.800713,6.11495 q -0.361858,0.14199 -0.66875,0.22902 -0.306893,0.087 -0.737458,0.087 -0.407663,0 -0.56798,-0.142 -0.160317,-0.14657 -0.229024,-0.35269 -0.265668,0.21528 -0.590883,0.35727 -0.325214,0.13742 -0.85197,0.13742 -0.508433,0 -0.824487,-0.17406 -0.311473,-0.17864 -0.439726,-0.44431 -0.123673,-0.27024 -0.123673,-0.55423 0,-0.43057 0.215283,-0.70998 0.219863,-0.28399 0.586301,-0.46263 0.366439,-0.17864 0.971063,-0.37102 0.343536,-0.10993 0.517595,-0.16489 0.178638,-0.0596 0.265668,-0.0916 0.08703,-0.0321 0.183219,-0.0824 0,-0.33896 -0.137415,-0.53134 -0.137414,-0.19238 -0.595462,-0.19238 -0.540497,0 -1.003126,0.23819 -0.462629,0.23818 -0.84739,0.61378 v -1.26421 q 0.306893,-0.21987 0.66417,-0.35728 0.357278,-0.142 0.746619,-0.2107 0.389341,-0.0687 0.787843,-0.0687 1.012287,0 1.520721,0.39392 0.513014,0.38934 0.513014,1.07641 v 1.80013 q 0,0.25651 0.04581,0.38477 0.05038,0.12367 0.178639,0.12367 0.155736,0 0.421404,-0.13284 z m -2.294822,-0.8932 v -1.1039 q -0.586302,0.23819 -0.85655,0.43057 -0.270249,0.1878 -0.270249,0.51301 0,0.23361 0.132834,0.35728 0.137415,0.12368 0.316053,0.12368 0.169478,0 0.334376,-0.0916 0.169478,-0.0962 0.343536,-0.22903 z m 7.352041,-3.53613 -2.120763,4.66293 h -1.218409 l -2.074959,-4.66293 h 1.772647 l 0.966482,2.4414 1.071833,-2.4414 z m 4.828195,2.72997 h -3.284206 q 0.09619,0.42598 0.47179,0.69623 0.375599,0.27025 0.85197,0.27025 0.833647,0 1.841354,-0.46721 v 1.02145 q -0.361858,0.1878 -0.879453,0.34353 -0.513014,0.15116 -1.310018,0.15116 -0.861131,0 -1.465755,-0.32063 -0.604624,-0.32064 -0.906936,-0.8703 -0.297731,-0.54965 -0.297731,-1.24589 0,-0.68707 0.297731,-1.22757 0.302312,-0.54508 0.906936,-0.85197 0.604624,-0.31147 1.465755,-0.31147 0.56798,0 1.094735,0.24735 0.531336,0.24276 0.870292,0.80158 0.343536,0.55424 0.343536,1.43369 z m -1.548203,-0.81533 q 0,-0.44889 -0.224444,-0.71456 -0.219863,-0.27024 -0.636687,-0.27024 -0.412243,0 -0.66875,0.27483 -0.251927,0.27024 -0.251927,0.70997 z"
       id="text55"
       style="font-weight:700;font-size:9.38083px;font-family:GillSans-Bold, 'Gill Sans';letter-spacing:-0.04em;fill:#fffffd;stroke-width:0.938083"
       transform="scale(0.93808314,1.0660036)"
       aria-label="Wave" />
    <path
       d="M 87.460872,124.5881 H 85.54623 v -3.67813 l -1.726843,2.12992 h -0.151156 l -1.731422,-2.12992 v 3.67813 h -1.859676 v -6.34855 h 1.736003 l 1.951286,2.38185 1.960446,-2.38185 h 1.736004 z m 2.560856,-5.73935 q 0,0.28857 -0.206121,0.49011 -0.206122,0.20154 -0.490112,0.20154 -0.19238,0 -0.352697,-0.0916 -0.155737,-0.0916 -0.247346,-0.24734 -0.09161,-0.16032 -0.09161,-0.3527 0,-0.28399 0.201541,-0.49011 0.201542,-0.20612 0.490112,-0.20612 0.28399,0 0.490112,0.20612 0.206121,0.20612 0.206121,0.49011 z m 0.132834,5.73935 h -1.653554 v -4.66294 h 1.653554 z m 5.954994,0 h -2.033734 l -0.902356,-1.32376 -0.897774,1.32376 h -1.804711 l 1.804711,-2.29025 -1.841355,-2.37269 h 2.029155 l 0.86113,1.2688 0.870292,-1.2688 h 1.804711 l -1.763486,2.21238 z"
       id="text56"
       style="font-weight:700;font-size:9.38083px;font-family:GillSans-Bold, 'Gill Sans';letter-spacing:-0.04em;fill:#fffffd;stroke-width:0.938083"
       transform="scale(0.93808314,1.0660036)"
       aria-label="Mix" />
    <path
       d="M 26.052113,69.961205 H 24.091666 L 23.574071,68.674089 H 20.81662 l -0.526755,1.287116 h -1.960447 l 2.807836,-6.34855 h 2.116184 z m -2.917768,-2.391013 -0.929838,-2.317724 -0.938999,2.317724 z m 6.793223,2.120764 q -0.256507,0.123673 -0.709975,0.238185 -0.448887,0.114512 -0.861131,0.114512 -1.781808,0 -1.781808,-1.740583 v -1.859677 h -0.746619 v -0.28857 l 2.212374,-2.253598 h 0.1878 v 1.397048 h 1.575686 v 1.14512 h -1.575686 v 1.493238 q 0,0.261087 0.03206,0.421404 0.03206,0.160317 0.178639,0.270249 0.151156,0.105351 0.453468,0.105351 0.393921,0 1.035189,-0.329795 z m 4.026612,0 q -0.256507,0.123673 -0.709975,0.238185 -0.448887,0.114512 -0.861131,0.114512 -1.781808,0 -1.781808,-1.740583 v -1.859677 h -0.746619 v -0.28857 l 2.212374,-2.253598 h 0.1878 v 1.397048 h 1.575686 v 1.14512 h -1.575686 v 1.493238 q 0,0.261087 0.03206,0.421404 0.03206,0.160317 0.178639,0.270249 0.151156,0.105351 0.453468,0.105351 0.393921,0 1.035189,-0.329795 z m 5.185473,0.03664 q -0.361858,0.141995 -0.66875,0.229024 -0.306892,0.08703 -0.737458,0.08703 -0.407663,0 -0.56798,-0.141995 -0.160317,-0.146575 -0.229024,-0.352697 -0.265668,0.215283 -0.590882,0.357278 -0.325215,0.137414 -0.85197,0.137414 -0.508434,0 -0.824487,-0.174058 -0.311473,-0.178639 -0.439727,-0.444307 -0.123673,-0.270249 -0.123673,-0.554238 0,-0.430566 0.215283,-0.709975 0.219863,-0.28399 0.586302,-0.462629 0.366439,-0.178639 0.971062,-0.371019 0.343537,-0.109932 0.517595,-0.164898 0.178639,-0.05955 0.265668,-0.09161 0.08703,-0.03206 0.183219,-0.08245 0,-0.338956 -0.137414,-0.531336 -0.137415,-0.19238 -0.595463,-0.19238 -0.540497,0 -1.003126,0.238185 -0.462629,0.238185 -0.847389,0.613784 v -1.264213 q 0.306892,-0.219863 0.66417,-0.357278 0.357278,-0.141995 0.746619,-0.210702 0.389341,-0.06871 0.787843,-0.06871 1.012287,0 1.52072,0.393921 0.513014,0.389341 0.513014,1.076414 v 1.80013 q 0,0.256507 0.04581,0.384761 0.05038,0.123673 0.178639,0.123673 0.155736,0 0.421404,-0.132834 z m -2.294822,-0.893194 v -1.103897 q -0.586302,0.238185 -0.85655,0.430566 -0.270249,0.187799 -0.270249,0.513014 0,0.233604 0.132834,0.357277 0.137415,0.123673 0.316054,0.123673 0.169478,0 0.334375,-0.09161 0.169478,-0.09619 0.343536,-0.229024 z m 6.431365,0.911516 q -0.206122,0.07787 -0.435146,0.146575 -0.229024,0.06413 -0.517595,0.105351 -0.28399,0.04581 -0.622946,0.04581 -0.76494,0 -1.296276,-0.256507 -0.526756,-0.261087 -0.815326,-0.650428 -0.28399,-0.393922 -0.393922,-0.801585 -0.109932,-0.407663 -0.109932,-0.719136 0,-0.311473 0.109932,-0.719136 0.114512,-0.407663 0.393922,-0.787843 0.279409,-0.38018 0.806165,-0.636687 0.531336,-0.256507 1.305437,-0.256507 0.517595,0 0.842809,0.07329 0.325215,0.07329 0.65959,0.19696 v 1.296277 q -0.806165,-0.256507 -1.259633,-0.256507 -0.439726,0 -0.783263,0.265668 -0.338955,0.265668 -0.338955,0.824487 0,0.371019 0.169477,0.627526 0.169478,0.251927 0.430566,0.371019 0.261087,0.119093 0.522175,0.119093 0.247346,0 0.563399,-0.07329 0.316054,-0.07329 0.769522,-0.210702 z m 5.968735,0.215283 H 47.15165 l -1.790969,-2.212374 v 2.212374 h -1.667296 v -6.34855 h 1.667296 v 3.723933 l 1.635233,-2.038315 h 1.978769 l -1.823033,2.175729 z"
       id="text57"
       style="font-weight:700;font-size:9.38083px;font-family:GillSans-Bold, 'Gill Sans';letter-spacing:-0.04em;fill:#fffffd;stroke-width:0.938083"
       transform="scale(0.93808314,1.0660036)"
       aria-label="Attack" />
    <path
       d="m 81.890424,66.901442 q 0,0.975643 -0.357278,1.566525 -0.352697,0.590882 -0.833648,0.957321 -0.682492,0.535917 -1.910062,0.535917 h -3.426201 v -6.34855 h 2.638358 q 0.595463,0 1.016868,0.06413 0.425984,0.05955 0.76494,0.174059 0.338956,0.109931 0.577141,0.251926 0.238185,0.137415 0.425985,0.297732 0.325214,0.265668 0.56798,0.627526 0.247346,0.361858 0.389341,0.838228 0.146576,0.476371 0.146576,1.03519 z m -1.946706,-0.08245 q 0,-0.774102 -0.297731,-1.204667 -0.293151,-0.435146 -0.709975,-0.581722 -0.412244,-0.146575 -0.842809,-0.146575 h -0.815326 v 3.760577 h 0.815326 q 0.751199,0 1.300857,-0.357278 0.549658,-0.357278 0.549658,-1.470335 z m 7.265013,1.209248 h -3.284206 q 0.09619,0.425985 0.471789,0.696233 0.3756,0.270249 0.85197,0.270249 0.833648,0 1.841355,-0.46721 v 1.021448 q -0.361859,0.1878 -0.879453,0.343536 -0.513014,0.151156 -1.310018,0.151156 -0.861131,0 -1.465755,-0.320634 -0.604624,-0.320633 -0.906936,-0.870291 -0.297731,-0.549658 -0.297731,-1.245892 0,-0.687072 0.297731,-1.227569 0.302312,-0.545078 0.906936,-0.85197 0.604624,-0.311473 1.465755,-0.311473 0.567979,0 1.094735,0.247346 0.531336,0.242766 0.870292,0.801585 0.343536,0.554238 0.343536,1.433691 z m -1.548203,-0.815326 q 0,-0.448888 -0.224444,-0.714556 -0.219863,-0.270248 -0.636687,-0.270248 -0.412244,0 -0.668751,0.274829 -0.251926,0.270248 -0.251926,0.709975 z m 5.977897,2.533007 q -0.206122,0.07787 -0.435146,0.146575 -0.229024,0.06413 -0.517595,0.105351 -0.28399,0.04581 -0.622945,0.04581 -0.764941,0 -1.296277,-0.256507 -0.526756,-0.261087 -0.815326,-0.650428 -0.28399,-0.393922 -0.393922,-0.801585 -0.109931,-0.407663 -0.109931,-0.719136 0,-0.311473 0.109931,-0.719136 0.114512,-0.407663 0.393922,-0.787843 0.279409,-0.38018 0.806165,-0.636687 0.531336,-0.256507 1.305438,-0.256507 0.517594,0 0.842809,0.07329 0.325214,0.07329 0.659589,0.19696 v 1.296277 q -0.806165,-0.256507 -1.259633,-0.256507 -0.439726,0 -0.783262,0.265668 -0.338956,0.265668 -0.338956,0.824487 0,0.371019 0.169478,0.627526 0.169478,0.251927 0.430565,0.371019 0.261088,0.119093 0.522175,0.119093 0.247346,0 0.5634,-0.07329 0.316053,-0.07329 0.769521,-0.210702 z m 5.263342,-0.01832 q -0.361858,0.141995 -0.668751,0.229024 -0.306892,0.08703 -0.737457,0.08703 -0.407663,0 -0.56798,-0.141995 -0.160317,-0.146575 -0.229024,-0.352697 -0.265668,0.215283 -0.590883,0.357278 -0.325214,0.137414 -0.85197,0.137414 -0.508433,0 -0.824487,-0.174058 -0.311473,-0.178639 -0.439726,-0.444307 -0.123673,-0.270249 -0.123673,-0.554238 0,-0.430566 0.215283,-0.709975 0.219863,-0.28399 0.586301,-0.462629 0.366439,-0.178639 0.971063,-0.371019 0.343536,-0.109932 0.517595,-0.164898 0.178638,-0.05955 0.265668,-0.09161 0.08703,-0.03206 0.183219,-0.08245 0,-0.338956 -0.137415,-0.531336 -0.137414,-0.19238 -0.595462,-0.19238 -0.540497,0 -1.003126,0.238185 -0.462629,0.238185 -0.84739,0.613784 v -1.264213 q 0.306893,-0.219863 0.66417,-0.357278 0.357278,-0.141995 0.746619,-0.210702 0.389341,-0.06871 0.787843,-0.06871 1.012287,0 1.520721,0.393921 0.513014,0.389341 0.513014,1.076414 v 1.80013 q 0,0.256507 0.0458,0.384761 0.05039,0.123673 0.178639,0.123673 0.155736,0 0.421404,-0.132834 z m -2.294822,-0.893194 v -1.103897 q -0.586302,0.238185 -0.85655,0.430566 -0.270249,0.187799 -0.270249,0.513014 0,0.233604 0.132834,0.357277 0.137415,0.123673 0.316053,0.123673 0.169478,0 0.334376,-0.09161 0.169478,-0.09619 0.343536,-0.229024 z m 7.434485,-3.536133 -3.169689,6.783695 H 97.204445 L 98.48698,69.352 96.641045,65.298273 h 1.772647 l 0.94816,2.317724 1.076418,-2.317724 z"
       id="text58"
       style="font-weight:700;font-size:9.38083px;font-family:GillSans-Bold, 'Gill Sans';letter-spacing:-0.04em;fill:#fffffd;stroke-width:0.938083"
       transform="scale(0.93808314,1.0660036)"
       aria-label="Decay" />
    <path
       style="font-weight:bold;font-size:12.0002px;font-family:GillSans-Bold, 'Gill Sans';-inkscape-font-specification:'GillSans-Bold, Gill Sans, Bold';fill:#ffffff;stroke-width:1.13388;stroke-linecap:square;stroke-linejoin:bevel;stroke-miterlimit:0.6;stroke-opacity:0.444884"
       d="m 40.121194,15.825362 h -2.44926 V 11.120206 L 35.462913,13.84486 H 35.269551 L 33.05467,11.120206 v 4.705156 H 30.675724 V 7.7041329 h 2.22074 l 2.496135,3.0469261 2.507855,-3.0469261 h 2.22074 z M 48.218985,9.8604189 44.16423,18.538298 h -2.132848 l 1.640652,-3.492246 -2.361367,-5.1856331 h 2.267616 l 1.212911,2.9648931 1.376976,-2.9648931 z m 8.367328,3.6621701 q 0,1.048846 -0.720715,1.67581 -0.714856,0.626963 -2.00394,0.626963 H 49.16822 V 7.7041329 h 3.925847 q 0.761732,0 1.324241,0.1464868 0.568369,0.1464869 0.914078,0.4043037 0.345709,0.2519573 0.515633,0.5976662 0.169925,0.3457089 0.169925,0.755872 0,0.4453204 -0.175784,0.8261854 -0.175784,0.375006 -0.439461,0.621104 -0.257816,0.240239 -0.521493,0.33985 0.832045,0.32813 1.265646,0.832045 0.439461,0.498055 0.439461,1.294943 z M 53.72689,10.042063 q 0,-0.5859477 -0.386725,-0.7793103 Q 52.95344,9.0693901 52.133114,9.0693901 H 51.61748 v 1.9453449 h 0.527353 q 0.837904,0 1.207051,-0.193363 0.375006,-0.193362 0.375006,-0.779309 z m 0.398444,3.380915 q 0,-1.042986 -1.511744,-1.042986 h -0.99611 v 2.080113 h 0.99611 q 1.511744,0 1.511744,-1.037127 z m 8.929836,-3.240288 -0.77931,2.11527 q -0.480477,-0.457039 -0.972673,-0.457039 -0.44532,0 -0.77345,0.304692 -0.322271,0.298833 -0.621104,1.1133 v 2.566449 h -2.10941 V 9.8604189 h 2.10941 v 1.4414301 q 0.199222,-0.533212 0.703136,-1.037126 0.503915,-0.5097746 1.183614,-0.5097746 0.357428,0 0.621104,0.1054705 0.269536,0.1054705 0.638683,0.3222711 z m 6.691521,5.343839 q -0.462899,0.181644 -0.855483,0.292974 -0.392585,0.11133 -0.943375,0.11133 -0.521493,0 -0.726575,-0.181644 -0.205081,-0.187503 -0.292974,-0.451179 -0.339849,0.275395 -0.755872,0.457039 -0.416022,0.175784 -1.089862,0.175784 -0.650401,0 -1.054705,-0.22266 -0.398444,-0.22852 -0.562509,-0.568369 -0.158206,-0.345709 -0.158206,-0.708996 0,-0.550791 0.275395,-0.908219 0.281255,-0.363287 0.750013,-0.591806 0.468758,-0.22852 1.242208,-0.474618 0.439461,-0.140627 0.662121,-0.210941 0.228519,-0.07617 0.339849,-0.117189 0.11133,-0.04102 0.234379,-0.105471 0,-0.433601 -0.175784,-0.679698 -0.175784,-0.246098 -0.761732,-0.246098 -0.691417,0 -1.283224,0.304692 -0.591807,0.304693 -1.084003,0.78517 v -1.617215 q 0.392585,-0.281255 0.849624,-0.457039 0.457039,-0.1816434 0.955094,-0.2695355 0.498055,-0.087892 1.007829,-0.087892 1.294944,0 1.945345,0.5039146 0.656261,0.498055 0.656261,1.376976 v 2.302773 q 0,0.32813 0.05859,0.492196 0.06445,0.158205 0.228519,0.158205 0.199222,0 0.539072,-0.169924 z m -2.935596,-1.142597 v -1.412133 q -0.750013,0.304693 -1.095721,0.55079 -0.345709,0.240239 -0.345709,0.656261 0,0.298833 0.169924,0.457039 0.175785,0.158206 0.404304,0.158206 0.2168,0 0.427741,-0.117189 0.216801,-0.123049 0.439461,-0.292974 z m 10.136885,1.44143 h -2.10941 v -3.21685 q 0,-0.492196 -0.164065,-0.855483 -0.158206,-0.369147 -0.703137,-0.369147 -0.257817,0 -0.457039,0.09961 -0.193362,0.09375 -0.351568,0.246098 -0.152347,0.152346 -0.257817,0.292973 -0.105471,0.140628 -0.216801,0.298833 v 3.503965 h -2.10941 V 9.8604189 h 2.10941 v 0.8554831 q 0.498056,-0.533212 0.996111,-0.7441531 0.503914,-0.2168005 1.119159,-0.2168005 2.144567,0 2.144567,2.5664486 z m 7.576297,0 h -2.11527 v -0.539071 q -0.33399,0.281254 -0.708996,0.462898 -0.369147,0.181644 -1.025408,0.181644 -0.650401,0 -1.277365,-0.322271 -0.626963,-0.322271 -1.031267,-1.00197 -0.404304,-0.685558 -0.404304,-1.722685 0,-0.814467 0.304693,-1.523463 0.304693,-0.714856 0.955094,-1.160176 0.650402,-0.4453196 1.593777,-0.4453196 0.585947,0 0.949234,0.1289084 0.363288,0.1289082 0.644542,0.3281302 V 7.7041329 h 2.11527 z m -2.11527,-1.898469 v -2.279335 q -0.369147,-0.205081 -0.580088,-0.292974 -0.205081,-0.08789 -0.486336,-0.08789 -0.498055,0 -0.832045,0.421882 -0.32813,0.421882 -0.32813,1.148457 0,0.791029 0.345709,1.154316 0.351568,0.357428 0.814466,0.357428 0.380866,0 0.615245,-0.117189 0.234379,-0.123049 0.451179,-0.304693 z"
       id="text72"
       aria-label="MyBrand" />
  </g>
</svg>
